<?xml version="1.0" encoding="utf-8"?>
<!-- Generator: Adobe Illustrator 27.2.0, SVG Export Plug-In . SVG Version: 6.00 Build 0)  -->
<svg version="1.1" id="Capa_1" xmlns="http://www.w3.org/2000/svg" xmlns:xlink="http://www.w3.org/1999/xlink" x="0px" y="0px"
	 viewBox="0 0 130 68.4" style="enable-background:new 0 0 130 68.4;" xml:space="preserve">
<style type="text/css">
	.st0{fill:#FFFFFF;}
</style>
<g>
	<g id="Logo_Vertical_RGB_00000054946123889566202820000016526731752189603489_">
		<path class="st0" d="M86.3,30.4l-7-3.8c-0.9-0.5-2-0.3-2.6,0.5c-0.4,0.5-0.8,1-1.1,1.2c-2.1,2-4.5,3.2-7.7,3.2
			c-6,0-9.4-4.6-9.4-9.3c0-6,5.4-11.7,11.9-11.7c3.1,0,5.7,1.4,7.4,3.4c0.6,0.8,1.7,1,2.5,0.5c2.1-1.1,7.9-3.9,8.1-4
			c0.2-0.1,0.2-0.3,0.2-0.5c-0.1-0.2-0.2-0.4-0.2-0.4C85.2,4,78.9,0,71.3,0C58.2,0,47.1,11.2,47.1,23.7c0,10.5,8.1,18.6,19.1,18.6
			c8.1,0,15.5-4.4,19.9-10.9c0.1-0.1,0.2-0.3,0.3-0.4C86.5,30.7,86.4,30.5,86.3,30.4 M124.7,2c-0.1-0.6-0.6-1.1-1.2-1.1h-14.1
			c-0.7,0-1.4,0.4-1.7,1L86.5,41c-0.1,0.2,0,0.5,0.3,0.5h9.8c0.7,0,1.4-0.4,1.7-1l16.1-30h0.4l1.8,14.7c0,0.2-0.1,0.4-0.3,0.4h-5.7
			c-1.5,0-2.2,1.9-1.1,2.9l6.3,5.5c1.3,1.1,2.1,2.7,2.3,4.3l0.2,1.9c0.1,0.6,0.6,1.1,1.2,1.1l9.9,0.3c0.2,0,0.4-0.2,0.3-0.4L124.7,2
			L124.7,2z M31.9,21.1c-0.7,5.8-5.4,10.5-11.2,10.5s-10-4.7-9.3-10.5c0.7-5.8,6-10.5,11.8-10.5S32.6,15.3,31.9,21.1 M24.2,0
			C12.3,0,1.6,9.5,0.2,21.1s7.1,21.1,18.9,21.1s22.6-9.5,24.1-21.1C44.5,9.5,36.1,0,24.2,0"/>
	</g>
	<g>
		<path class="st0" d="M3.5,62.8c-1.1-1.1-1.6-2.4-1.6-4c0-1.6,0.5-2.9,1.6-3.9c1.1-1.1,2.4-1.6,4-1.6c1.4,0,2.6,0.4,3.6,1.2
			c1,0.8,1.7,1.8,1.9,3.1h-2.3c-0.5-1.3-1.7-2.2-3.2-2.2c-1,0-1.8,0.3-2.5,1c-0.7,0.7-1,1.5-1,2.5s0.3,1.8,1,2.5
			c0.7,0.7,1.5,1,2.5,1c1.5,0,2.7-0.9,3.2-2.2H13c-0.3,1.3-0.9,2.3-1.9,3.1s-2.2,1.2-3.6,1.2C5.9,64.4,4.6,63.9,3.5,62.8"/>
		<path class="st0" d="M18.2,62.5c0.6,0,1.1-0.2,1.6-0.6c0.4-0.4,0.6-0.9,0.6-1.6s-0.2-1.1-0.6-1.6c-0.4-0.4-0.9-0.6-1.6-0.6
			c-0.6,0-1.1,0.2-1.6,0.6c-0.4,0.4-0.6,0.9-0.6,1.6s0.2,1.2,0.6,1.6C17.1,62.3,17.6,62.5,18.2,62.5 M18.2,64.5
			c-1.2,0-2.2-0.4-3.1-1.2c-0.8-0.8-1.2-1.8-1.2-3s0.4-2.2,1.2-3c0.8-0.8,1.8-1.2,3.1-1.2c1.2,0,2.2,0.4,3,1.2
			c0.8,0.8,1.2,1.8,1.2,3c0,1.2-0.4,2.2-1.2,3C20.4,64.1,19.4,64.5,18.2,64.5"/>
		<path class="st0" d="M35.5,57c0.5,0.5,0.8,1.3,0.8,2.1v5.2h-2v-4.6c0-1-0.6-1.6-1.6-1.6c-1,0-1.7,0.7-1.7,1.6v4.5h-2v-4.6
			c0-0.9-0.6-1.6-1.6-1.6c-1,0-1.7,0.7-1.7,1.6v4.5h-2v-7.8h2v0.8c0.6-0.7,1.4-1.1,2.4-1.1c1.2,0,2.1,0.5,2.6,1.4
			c0.6-0.9,1.5-1.4,2.7-1.4c0.9,0,1.6,0.3,2.1,0.8"/>
		<path class="st0" d="M43.8,59.5c-0.3-1-1.1-1.6-2.1-1.6s-1.8,0.6-2.1,1.6H43.8z M46,60.9h-6.4c0.3,1.1,1.1,1.7,2.1,1.7
			c0.9,0,1.6-0.4,1.9-0.9h2.2c-0.3,0.8-0.8,1.4-1.6,1.9c-0.7,0.5-1.6,0.7-2.6,0.7c-1.2,0-2.2-0.4-3.1-1.2c-0.8-0.8-1.2-1.8-1.2-3
			s0.4-2.2,1.2-3c0.8-0.8,1.8-1.2,3.1-1.2c1.2,0,2.2,0.4,3,1.2c0.8,0.8,1.2,1.8,1.2,3c0,0.3,0,0.5-0.1,0.7"/>
		<path class="st0" d="M49.1,57.6c0.7-0.9,1.5-1.3,2.5-1.3v2.1c-1.6,0-2.5,0.8-2.5,2.2v3.7h-2v-7.8h2V57.6L49.1,57.6z"/>
		<path class="st0" d="M53.3,63.2c-0.8-0.8-1.2-1.7-1.2-2.9s0.4-2.1,1.2-2.8c0.8-0.8,1.8-1.2,2.9-1.2c1,0,1.9,0.3,2.6,0.9
			c0.7,0.6,1.2,1.3,1.4,2.3h-2.1c-0.3-0.8-1.1-1.3-1.9-1.3c-0.6,0-1.1,0.2-1.5,0.6c-0.4,0.4-0.6,0.9-0.6,1.5s0.2,1.1,0.6,1.5
			c0.4,0.4,0.9,0.6,1.5,0.6c0.9,0,1.6-0.5,1.9-1.3h2.1c-0.2,0.9-0.6,1.7-1.4,2.3c-0.7,0.6-1.6,0.9-2.6,0.9
			C55.1,64.4,54.1,64,53.3,63.2"/>
		<path class="st0" d="M61.7,56.5h2v7.8h-2V56.5z M61.8,54.8c-0.5-0.5-0.5-1.3,0-1.8c0.5-0.5,1.3-0.5,1.8,0c0.5,0.5,0.5,1.3,0,1.8
			C63.1,55.3,62.3,55.3,61.8,54.8"/>
		<path class="st0" d="M69.2,62.5c0.6,0,1.1-0.2,1.6-0.6c0.4-0.4,0.6-0.9,0.6-1.6s-0.2-1.1-0.6-1.6c-0.4-0.4-0.9-0.6-1.6-0.6
			s-1.1,0.2-1.6,0.6c-0.4,0.4-0.6,0.9-0.6,1.6s0.2,1.2,0.6,1.6C68.1,62.3,68.6,62.5,69.2,62.5 M69.2,64.5c-1.2,0-2.2-0.4-3.1-1.2
			c-0.8-0.8-1.2-1.8-1.2-3s0.4-2.2,1.2-3c0.8-0.8,1.8-1.2,3.1-1.2s2.2,0.4,3,1.2c0.8,0.8,1.2,1.8,1.2,3c0,1.2-0.4,2.2-1.2,3
			C71.5,64.1,70.5,64.5,69.2,64.5"/>
		<path class="st0" d="M75.1,63.9c-0.6-0.5-0.9-1.1-0.9-1.9h2.1c0,0.5,0.4,0.9,1,0.9s0.9-0.3,0.9-0.7c0-0.4-0.4-0.8-1.3-1
			c-1.7-0.4-2.5-1.2-2.5-2.5c0-0.8,0.3-1.4,0.8-1.8c0.6-0.4,1.3-0.7,2.1-0.7c0.8,0,1.5,0.2,2.1,0.7c0.6,0.5,0.8,1.1,0.8,1.8h-2.1
			c0-0.4-0.4-0.8-0.9-0.8c-0.4,0-0.8,0.3-0.8,0.7c0,0.4,0.5,0.8,1.4,1c1.6,0.4,2.4,1.2,2.4,2.5c0,0.8-0.3,1.4-0.9,1.9
			c-0.6,0.5-1.3,0.7-2.1,0.7C76.4,64.7,75.7,64.4,75.1,63.9"/>
	</g>
	<g>
		<path class="st0" d="M110.4,57.5c-0.3-0.3-0.5-0.5-0.9-0.6s-0.7-0.2-1.1-0.2s-0.7,0.1-1.1,0.2s-0.6,0.4-0.9,0.6
			c-0.3,0.3-0.5,0.6-0.6,1c-0.1,0.4-0.2,0.8-0.2,1.2s0.1,0.8,0.2,1.2c0.1,0.4,0.3,0.7,0.6,1s0.5,0.5,0.9,0.6s0.7,0.2,1.1,0.2
			s0.7-0.1,1.1-0.2c0.3-0.2,0.6-0.4,0.9-0.6c0.3-0.3,0.4-0.6,0.6-1c0.1-0.4,0.2-0.8,0.2-1.2s-0.1-0.8-0.2-1.2
			C110.9,58.1,110.7,57.8,110.4,57.5z"/>
		<path class="st0" d="M96.8,56.7h-1.7v2.5h1.7v0c0.4,0,0.7-0.1,1-0.4c0.3-0.3,0.4-0.5,0.4-0.9s-0.1-0.6-0.4-0.9
			C97.5,56.9,97.2,56.7,96.8,56.7z"/>
		<path class="st0" d="M127.2,51H89.2c-1.5,0-2.8,1.2-2.8,2.8v11.9c0,1.5,1.2,2.8,2.8,2.8h37.9c1.5,0,2.8-1.2,2.8-2.8V53.7
			C130,52.2,128.7,51,127.2,51z M100.3,59.4c-0.2,0.4-0.5,0.8-0.8,1.1c-0.3,0.3-0.7,0.6-1.2,0.8c-0.5,0.2-1,0.3-1.5,0.3h-1.7v3.3
			h-2.4V54.4h4.1v0c0.5,0,1,0.1,1.5,0.3c0.5,0.2,0.9,0.4,1.2,0.8s0.6,0.7,0.8,1.1s0.3,0.9,0.3,1.4C100.6,58.5,100.5,59,100.3,59.4z
			 M113.3,61.8c-0.3,0.6-0.6,1.2-1.1,1.7c-0.5,0.5-1,0.9-1.7,1.1c-0.6,0.3-1.3,0.4-2,0.4s-1.4-0.1-2-0.4c-0.6-0.3-1.2-0.7-1.7-1.1
			c-0.5-0.5-0.8-1.1-1.1-1.7c-0.3-0.6-0.4-1.3-0.4-2.1s0.1-1.4,0.4-2.1c0.3-0.7,0.6-1.2,1.1-1.7c0.5-0.5,1-0.9,1.7-1.1
			c0.6-0.3,1.3-0.4,2-0.4s1.4,0.1,2,0.4c0.6,0.3,1.2,0.7,1.7,1.1s0.8,1.1,1.1,1.7c0.3,0.7,0.4,1.4,0.4,2.1
			C113.7,60.4,113.5,61.1,113.3,61.8z M123.9,63.1c-0.2,0.4-0.4,0.7-0.8,1s-0.7,0.5-1.2,0.7c-0.5,0.2-1.1,0.3-1.7,0.3
			s-1.1-0.1-1.6-0.3c-0.5-0.2-0.9-0.4-1.2-0.7c-0.3-0.3-0.6-0.7-0.8-1.1c-0.2-0.4-0.3-0.9-0.3-1.4l2.3-0.2c0,0.9,0.5,1.4,1.5,1.4
			c0.5,0,0.8-0.1,1.1-0.3c0.2-0.2,0.4-0.5,0.4-0.8c0-0.3-0.1-0.5-0.4-0.6c-0.3-0.1-0.6-0.3-1-0.4c-0.4-0.1-0.8-0.3-1.2-0.4
			c-0.4-0.1-0.9-0.3-1.2-0.6s-0.7-0.6-1-0.9c-0.3-0.4-0.4-0.9-0.4-1.5l0,0c0-0.4,0.1-0.8,0.3-1.1c0.2-0.4,0.4-0.7,0.7-1
			c0.3-0.3,0.7-0.5,1.2-0.7c0.5-0.2,1-0.3,1.6-0.3c0.6,0,1.1,0.1,1.5,0.3c0.5,0.2,0.8,0.4,1.2,0.7c0.3,0.3,0.6,0.7,0.7,1.1
			c0.2,0.4,0.3,0.9,0.3,1.3l-2.3,0.2c0-0.4-0.1-0.8-0.4-1s-0.6-0.4-1-0.4c-0.4,0-0.7,0.1-0.9,0.3c-0.2,0.2-0.3,0.4-0.3,0.7
			c0,0.3,0.1,0.5,0.4,0.6s0.6,0.3,1,0.4c0.4,0.1,0.8,0.2,1.2,0.4c0.4,0.1,0.9,0.3,1.2,0.6c0.4,0.2,0.7,0.6,1,1
			c0.3,0.4,0.4,0.9,0.4,1.6C124.1,62.4,124.1,62.8,123.9,63.1z"/>
	</g>
</g>
</svg>
